<svg width="18" height="18" viewBox="0 0 18 18" fill="none" xmlns="http://www.w3.org/2000/svg">
<g opacity="0.4">
<path d="M8.57666 0.666748C10.6455 0.666748 12.3335 2.32528 12.3335 4.36694V8.35815H7.24561C6.8813 8.35834 6.59344 8.64169 6.59326 8.99976C6.59326 9.34964 6.88119 9.64117 7.24561 9.64136H12.3335V13.6248C12.3335 15.6664 10.6458 17.3337 8.56006 17.3337H4.43115C2.35392 17.3337 0.666575 15.6752 0.666504 13.6335V4.37476C0.666683 2.32491 2.36277 0.666748 4.43994 0.666748H8.57666ZM14.4497 6.12573C14.6996 5.86747 15.1079 5.86716 15.3579 6.11694L17.7915 8.54175C17.9165 8.66675 17.9829 8.82573 17.9829 9.00073C17.9828 9.16722 17.9164 9.3334 17.7915 9.44995L15.3579 11.8757C15.233 12.0003 15.0667 12.067 14.9087 12.0671C14.7421 12.0671 14.5747 12.0007 14.4497 11.8757C14.1997 11.6257 14.1997 11.2166 14.4497 10.9666L15.7837 9.64233H12.3335V8.35815H15.7837L14.4497 7.03394C14.1998 6.78407 14.2001 6.37577 14.4497 6.12573Z" fill="#030229"/>
</g>
</svg>
