<svg width="24" height="24" viewBox="0 0 24 24" fill="none" xmlns="http://www.w3.org/2000/svg">
<g opacity="0.4">
<path d="M12.7167 2.00012C13.4729 2.00012 14.1579 2.42019 14.536 3.04016C14.7199 3.34006 14.843 3.70988 14.8124 4.09973C14.792 4.39973 14.8833 4.70059 15.0468 4.98059C15.568 5.83047 16.7237 6.15001 17.623 5.67004C18.6345 5.09039 19.9115 5.44016 20.4941 6.42981L21.1786 7.61047C21.7713 8.60046 21.4447 9.87057 20.4228 10.4406C19.5542 10.9506 19.2473 12.0806 19.7685 12.9406C19.9319 13.2105 20.1162 13.4402 20.4023 13.5802C20.7599 13.7702 21.0362 14.0702 21.2304 14.3702C21.6083 14.9901 21.5776 15.7502 21.2099 16.42L20.4941 17.6202C20.1159 18.2601 19.411 18.6602 18.6855 18.6603C18.3279 18.6603 17.9294 18.5603 17.6025 18.3605C17.3368 18.1905 17.03 18.13 16.703 18.13C15.6913 18.13 14.8431 18.9603 14.8124 19.9503C14.8123 21.1001 13.8721 21.9999 12.6972 22.0001H11.3066C10.1213 22 9.18166 21.1001 9.18156 19.9503C9.16112 18.9603 8.31243 18.13 7.3007 18.13C6.96348 18.13 6.65675 18.1905 6.40128 18.3605C6.07433 18.5603 5.66562 18.6603 5.31827 18.6603C4.58247 18.6603 3.87707 18.2602 3.49894 17.6202L2.79386 16.42C2.41582 15.7701 2.39534 14.9902 2.77335 14.3702C2.93682 14.0703 3.24339 13.7702 3.59074 13.5802C3.87684 13.4402 4.06156 13.2105 4.23527 12.9406C4.74625 12.0806 4.43889 10.9506 3.57023 10.4406C2.55867 9.87057 2.23209 8.6004 2.81437 7.61047L3.49894 6.42981C4.09168 5.44 5.35891 5.09024 6.38077 5.67004C7.26977 6.14999 8.42492 5.83036 8.9462 4.98059C9.10972 4.70059 9.202 4.39973 9.18156 4.09973C9.16121 3.70987 9.27358 3.34007 9.46769 3.04016C9.84583 2.42024 10.5303 2.02012 11.2763 2.00012H12.7167ZM12.0116 9.17981C10.4074 9.18 9.10942 10.4401 9.10929 12.0099C9.10929 13.5798 10.4073 14.83 12.0116 14.8302C13.6161 14.8302 14.8837 13.5799 14.8837 12.0099C14.8836 10.44 13.616 9.17981 12.0116 9.17981Z" fill="#030229"/>
</g>
</svg>
