<svg width="20" height="20" viewBox="0 0 20 20" fill="none" xmlns="http://www.w3.org/2000/svg">
<path d="M0.189453 10.8145C0.268449 10.7645 0.367709 10.8237 0.379883 10.835C2.40063 12.1917 4.8319 13.093 7.38281 13.4678C7.74299 13.5184 8.10405 13.2855 8.2041 12.9209C8.42435 12.0911 9.13443 11.5442 9.98438 11.5439H10.0146C10.8648 11.544 11.5756 12.0909 11.7959 12.9209C11.8959 13.2853 12.2562 13.5182 12.6162 13.4678C15.1673 13.0931 17.5983 12.1918 19.6191 10.835C19.6191 10.835 19.6392 10.8245 19.6592 10.8145C19.699 10.7943 19.7597 10.7845 19.8096 10.8145C19.8965 10.8634 19.8993 10.9795 19.8994 10.9873L19.8193 16.1514C19.8193 18.2779 18.1186 20 16.0176 20H3.97168C1.87083 19.9998 0.169922 18.2778 0.169922 16.1514L0.0996094 10.9873C0.0996956 10.9796 0.102599 10.8634 0.189453 10.8145ZM9.99414 12.9922C9.58445 12.9927 9.24437 13.3372 9.24414 13.752V15.0576C9.24414 15.4826 9.58432 15.8169 9.99414 15.8174C10.4144 15.8174 10.7451 15.4829 10.7451 15.0576V13.752C10.7449 13.337 10.4142 12.9922 9.99414 12.9922ZM11.2852 0C12.7858 0 14.0168 1.14412 14.207 2.6123H16.1885C18.2893 2.61252 19.9999 4.34433 20 6.4707C20 6.4707 19.9399 7.37134 19.9199 8.625C19.9179 8.72411 19.8699 8.82119 19.791 8.87988C19.3098 9.23532 18.8691 9.52955 18.8291 9.5498C17.1684 10.6636 15.2385 11.4471 13.1826 11.8369C13.0486 11.8632 12.9167 11.7933 12.8486 11.6738C12.2724 10.6754 11.1957 10.0254 9.99512 10.0254C8.80255 10.0254 7.71635 10.6685 7.12305 11.668C7.05401 11.7854 6.92311 11.8534 6.79004 11.8281C4.75124 11.4372 2.82159 10.6541 1.1709 9.55957L0.209961 8.89062C0.130205 8.84002 0.0802028 8.74942 0.0800781 8.64844C0.0500631 8.13198 0 6.4707 0 6.4707C8.05537e-05 4.34433 1.7107 2.61251 3.81152 2.6123H5.7832C5.97345 1.14422 7.20359 0.000127476 8.7041 0H11.2852ZM8.7041 1.51855C8.03399 1.51867 7.46389 1.98471 7.30371 2.6123H12.6865C12.5263 1.9846 11.9554 1.51855 11.2852 1.51855H8.7041Z" fill="#605BFF"/>
</svg>
