<svg width="8" height="10" viewBox="0 0 8 10" fill="none" xmlns="http://www.w3.org/2000/svg">
<path fill-rule="evenodd" clip-rule="evenodd" d="M7.45297 2.18461C7.61506 2.18461 7.75 2.31919 7.75 2.49044V2.64877C7.75 2.81585 7.61506 2.9546 7.45297 2.9546H0.547439C0.384942 2.9546 0.25 2.81585 0.25 2.64877V2.49044C0.25 2.31919 0.384942 2.18461 0.547439 2.18461H1.76232C2.0091 2.18461 2.22388 2.0092 2.27939 1.7617L2.34301 1.47753C2.44189 1.09045 2.76729 0.833374 3.1397 0.833374H4.8603C5.22866 0.833374 5.5577 1.09045 5.65293 1.45712L5.72101 1.76128C5.77612 2.0092 5.9909 2.18461 6.23809 2.18461H7.45297ZM6.83576 7.97255C6.9626 6.79047 7.18466 3.98217 7.18466 3.95384C7.19277 3.868 7.16481 3.78675 7.10929 3.72134C7.04972 3.66009 6.97435 3.62384 6.89128 3.62384H1.11189C1.02841 3.62384 0.948982 3.66009 0.893871 3.72134C0.837949 3.78675 0.810394 3.868 0.814446 3.95384C0.815191 3.95904 0.823159 4.05796 0.83648 4.22334C0.89566 4.95802 1.06049 7.00427 1.167 7.97255C1.24237 8.68587 1.71041 9.1342 2.38836 9.15045C2.91151 9.16253 3.45047 9.1667 4.00158 9.1667C4.52068 9.1667 5.04789 9.16253 5.58725 9.15045C6.2887 9.13837 6.75634 8.69795 6.83576 7.97255Z" fill="#E71D36"/>
</svg>
